<mxfile host="app.diagrams.net" modified="2024-03-19T02:42:41.658Z" agent="Mozilla/5.0 (Windows NT 10.0; Win64; x64) AppleWebKit/537.36 (KHTML, like Gecko) Chrome/122.0.0.0 Safari/537.36" version="24.0.7" etag="bjYfCmjLMyG9c-0HrPzA" type="github">
  <diagram name="第 1 页" id="k0BQ1CpjjHrx04w0RQIO">
    <mxGraphModel>
      <root>
        <mxCell id="0" />
        <mxCell id="1" parent="0" />
      </root>
    </mxGraphModel>
  </diagram>
</mxfile>
